<?xml version="1.0" standalone="no"?>
<!DOCTYPE svg PUBLIC "-//W3C//DTD SVG 20010904//EN"
 "http://www.w3.org/TR/2001/REC-SVG-20010904/DTD/svg10.dtd">
<svg version="1.0" xmlns="http://www.w3.org/2000/svg"
 width="100.000000pt" height="110.000000pt" viewBox="0 0 100.000000 110.000000"
 preserveAspectRatio="xMidYMid meet">

<g transform="translate(0.000000,110.000000) scale(0.100000,-0.100000)"
fill="#000000" stroke="none">
<path d="M701 1041 c-8 -14 -10 -36 -6 -57 3 -19 2 -34 -2 -34 -19 0 -53 33
-53 51 0 27 -18 24 -32 -7 -11 -24 -15 -25 -60 -19 l-49 7 7 -27 c7 -26 6 -27
-27 -20 -19 4 -46 13 -61 20 -25 12 -27 12 -30 -14 -3 -25 -5 -26 -71 -26 -63
0 -80 -6 -57 -20 20 -12 9 -32 -29 -53 -21 -12 -48 -22 -59 -22 -31 0 -36 -19
-7 -26 39 -10 32 -73 -14 -121 -28 -30 -27 -33 13 -26 40 6 55 -13 59 -77 2
-44 12 -52 22 -19 7 21 7 21 32 -3 14 -12 32 -38 40 -57 10 -24 17 -30 23 -22
14 23 48 -9 55 -51 8 -44 36 -68 81 -68 35 0 57 -20 52 -47 -4 -19 -37 -23
-70 -8 -14 5 -18 2 -18 -14 0 -29 -31 -27 -67 3 -23 20 -29 22 -38 9 -17 -22
-59 16 -74 69 -24 78 -49 117 -91 138 -35 18 -44 19 -68 8 -22 -11 -28 -21
-30 -57 -3 -43 -2 -46 72 -118 42 -40 76 -78 76 -84 0 -20 -58 -69 -82 -69
-29 0 -49 -15 -74 -54 l-19 -30 23 6 c28 8 29 -11 1 -46 -20 -26 -20 -26 0
-26 18 0 81 64 81 83 0 5 29 37 64 71 l64 61 48 -17 c123 -42 261 -28 304 33
12 16 30 29 41 29 23 0 25 13 2 31 -9 8 -23 29 -30 48 -13 31 -13 36 2 47 22
16 13 31 -24 39 -34 7 -58 30 -41 40 21 13 9 30 -23 32 -52 4 -74 12 -81 30
-5 11 -1 22 11 30 15 12 20 10 36 -9 18 -23 18 -23 11 16 l-7 40 28 -22 c26
-21 45 -21 45 -1 0 6 -4 8 -8 5 -5 -3 -21 5 -37 18 -28 22 -28 23 -5 22 13 -1
25 4 27 10 2 7 -8 9 -27 6 -26 -4 -30 -1 -30 18 0 18 3 20 14 11 21 -17 30 4
10 23 -8 9 -23 16 -32 16 -15 1 -14 3 3 17 19 15 19 15 1 9 -11 -4 -23 -2 -27
5 -4 8 -13 1 -23 -20 -21 -40 -34 -39 -38 1 -2 24 -10 36 -30 46 -33 15 -34
22 -11 74 17 39 43 55 65 42 9 -6 5 -10 -11 -14 -30 -7 -39 -28 -15 -37 19 -7
48 8 50 26 1 6 2 14 3 18 0 4 8 -3 17 -15 20 -29 51 -28 80 3 13 14 28 25 35
25 8 0 6 -7 -4 -18 -33 -37 -20 -68 48 -115 40 -28 85 -96 85 -129 0 -34 23
-37 58 -8 24 20 22 40 -3 40 -16 0 -70 78 -61 88 4 3 19 -7 35 -22 15 -15 41
-30 57 -35 19 -5 30 -15 32 -29 4 -26 28 -29 60 -6 26 18 28 42 5 59 -15 11
-15 13 5 19 38 12 37 43 -3 87 -43 48 -42 70 4 85 38 12 26 28 -14 18 -24 -6
-45 -30 -45 -53 0 -6 16 -29 36 -51 38 -42 40 -70 5 -70 -11 0 -21 9 -25 23
-3 13 -19 41 -36 62 -16 21 -30 46 -30 57 0 16 -3 17 -20 8 -11 -6 -25 -8 -30
-5 -16 10 -43 67 -50 105 -6 35 -6 35 -19 11z m112 -221 c14 -23 15 -30 5 -30
-19 0 -38 21 -38 42 0 27 13 22 33 -12z m-425 -82 c7 -7 12 -21 12 -31 0 -17
5 -18 33 -12 55 12 60 11 74 -15 11 -22 11 -27 -8 -42 -12 -10 -30 -18 -40
-18 -12 0 -24 -11 -30 -26 l-10 -27 -27 24 c-49 43 -62 64 -62 101 0 25 6 40
18 47 22 13 26 13 40 -1z m-219 -298 c17 -9 51 -76 51 -100 0 -21 -18 -9 -32
21 -9 17 -26 36 -39 43 -28 14 -38 46 -14 46 9 0 24 -4 34 -10z m309 -48 c2
-7 -3 -12 -12 -12 -9 0 -16 7 -16 16 0 17 22 14 28 -4z"/>
<path d="M475 850 c-19 -30 56 -55 83 -28 19 19 14 27 -15 26 -16 -1 -35 2
-44 6 -10 4 -20 2 -24 -4z"/>
<path d="M394 839 c-6 -11 20 -39 35 -39 17 1 35 20 26 28 -18 17 -53 23 -61
11z"/>
</g>
</svg>
